# xmcd
#
# Track frame offsets: 
#        150
#        11107
#        26246
#        44572
#        56573
#        70647
#        93222
#        102233
#        119165
#        133421
#        152010
#        168495
#
# Disc length: 2509 seconds
#
# Revision: 1
# Processed by: cddbd v1.5.2PL0 Copyright (c) Steve Scherf et al.
# Submitted via: ExactAudioCopy v1.3
#
DISCID=aa09cb0c
DTITLE=Houndmouth - From the Hills Below the City
DYEAR=2013
DGENRE=Folk
TTITLE0=On the Road
TTITLE1=Come On, Illinois
TTITLE2=Penitentiary
TTITLE3=Casino (Bad Things)
TTITLE4=Ludlow
TTITLE5=Hey Rose
TTITLE6=Krampus
TTITLE7=Long As You're At Home
TTITLE8=Houston Train
TTITLE9=Halfway To Hardinsburg
TTITLE10=Comin' Around Again
TTITLE11=Palmyra
EXTD=
EXTT0=
EXTT1=
EXTT2=
EXTT3=
EXTT4=
EXTT5=
EXTT6=
EXTT7=
EXTT8=
EXTT9=
EXTT10=
EXTT11=
PLAYORDER=
